<?xml version="1.0" encoding="UTF-8" standalone="no"?>
<svg xmlns="http://www.w3.org/2000/svg" viewBox="0 0 100 100" width="100" height="100">
  <path fill="#A0522D" d="M92,40c-2-2-4-3-7-3c-3,0-5-1-7-3c-2-2-4-4-6-5c-2-1-5-1-7,0c-2,1-4,2-6,2c-2,0-4-1-6-2c-2-1-5-2-7-1
    c-3,1-5,3-8,4c-3,1-5,0-8-1c-3-1-5-2-8-1c-3,1-5,3-7,6c-2,3-3,6-3,9c0,3,1,6,3,9c2,3,5,5,8,6c3,1,6,1,9-1c3-2,5-4,8-5
    c3-1,6,0,9,1c3,1,5,3,7,5c2,2,4,5,5,8c1,3,2,6,2,10c0,3,0,6,1,9c1,3,3,5,6,7c3,1,6,1,8-1c2-2,3-5,3-8c0-3,0-6,1-9c1-3,2-5,5-7
    c2-2,5-3,8-4c3-1,5-2,7-4c2-3,2-6,1-9C96,44,94,42,92,40z M37,60c-2,0-4,0-5-2c-1-2-1-4,0-6c1-2,3-3,5-4c2,0,4,0,6,1c2,1,3,3,3,5
    c0,2-1,4-3,5C41,60,39,61,37,60z"/>
  <!-- Add legs -->
  <path fill="#A0522D" d="M40,65c0,3,0,6-1,8c-1,3-2,5-3,8c-1,2-1,5,0,7c1,2,3,4,6,4c2,0,4-2,5-4c1-2,1-5,2-7c0-3,1-5,1-8c0-3-1-5-3-7"/>
  <path fill="#A0522D" d="M60,70c0,3,0,6,0,9c0,3,0,6-1,8c-1,3-2,5-1,8c0,3,2,5,4,5c3,0,5-2,6-4c1-3,1-6,1-9c0-3-1-6-1-9c0-3,0-6-2-8"/>
  <!-- Add eye -->
  <circle fill="black" cx="25" cy="55" r="2"/>
</svg>
