<?xml version="1.0" encoding="UTF-8" standalone="no"?>
<svg xmlns="http://www.w3.org/2000/svg" viewBox="0 0 100 100" width="100" height="100">
  <path fill="#8B4513" d="M85,45c-2-3-5-4-8-5c-2-1-4-2-6-4c-2-2-2-4-3-7c-1-3-2-6-5-8c-2-1-4-1-6,0c-2,1-3,2-5,3c-2,1-3,0-5-1
    c-2-1-4-2-6-1c-1,0-2,1-3,2c-1,1-2,2-4,2c-1,0-3,0-4,1c-1,1-2,3-2,5c-1,2-3,3-5,4c-2,1-4,2-4,4c-1,2-1,4-2,6c-1,2-2,4-1,6
    c1,2,2,3,4,3c2,0,3-1,4-2c1-1,2-2,4-2c2,0,3,1,5,2c2,1,3,2,5,1c2-1,3-2,3-4c0-2-1-4,0-6c0-2,2-4,4-4c2,0,4,0,5,2c2,1,3,3,5,4
    c2,1,4,2,5,4c2,2,3,5,4,7c1,3,2,5,3,8c1,3,1,6,2,8c0,1,0,3,1,4c1,1,2,1,3,1c1-1,2-2,2-4c0-2-1-4-1-6c0-2,0-5,1-7c1-2,3-4,5-5
    c2-1,5-1,7-2c3-1,5-2,6-5C87,49,86,47,85,45z"/>
  <!-- Add legs -->
  <path fill="#8B4513" d="M30,65c0,2,0,5-1,7c0,2-1,4-2,6c-1,2-2,4-2,6c0,2,1,4,3,5c2,1,4,0,5-2c1-2,1-4,2-6c0-2,1-4,1-6c0-2,0-4,0-6"/>
  <path fill="#8B4513" d="M50,70c0,2,0,5,0,7c0,2,0,4-1,6c-1,2-2,4-2,6c0,2,0,4,2,5c2,1,4,0,5-2c1-2,2-4,2-6c0-2,0-4,0-6c0-2,0-4,0-6"/>
</svg>
