<?xml version="1.0" encoding="UTF-8" standalone="no"?>
<svg xmlns="http://www.w3.org/2000/svg" viewBox="0 0 40 40" width="40" height="40">
  <circle fill="#F8D568" stroke="#A0522D" stroke-width="2" cx="20" cy="20" r="18"/>
  <path fill="#8B4513" d="M29,16c-1-1-2-1-3-2c-1,0-2-1-2-1c-1-1-1-1-1-2c0-1-1-2-2-3c-1,0-1,0-2,0c-1,0-1,1-2,1c-1,1-1,0-2,0
    c-1,0-1-1-2,0c-1,0-1,0-1,1c-1,0-1,1-2,1c0,0-1,0-1,0c-1,0-1,1-1,2c0,1-1,1-2,1c-1,1-1,1-1,2c-1,1-1,1-1,2c0,1-1,1-1,2
    c0,1,1,1,1,1c1,0,1,0,2-1c0,0,1-1,1-1c1,0,1,0,2,1c1,0,1,1,2,0c1,0,1-1,1-1c0-1,0-2,0-2c0-1,1-1,1-1c1,0,2,0,2,0c1,1,1,1,2,2
    c1,0,1,0,2,1c1,1,1,2,1,3c1,1,1,2,1,3c0,1,1,2,1,3c0,1,0,1,0,1c0,1,1,1,1,1c0,0,1-1,1-1c0-1,0-2,0-2c0-1,0-2,0-3c0-1,1-1,2-2
    c1,0,2,0,2-1c1,0,2-1,2-2C30,18,30,17,29,16z"/>
</svg>
